<svg id="Capa_1" data-name="Capa 1" xmlns="http://www.w3.org/2000/svg" viewBox="0 0 268.73 114.65"><defs><style>.cls-1{font-size:25.42px;font-family:Futura-Medium, Futura;font-weight:500;letter-spacing:0.14em;}.cls-1,.cls-6{fill:#345b9d;}.cls-2{letter-spacing:0.14em;}.cls-3{letter-spacing:0.14em;}.cls-4{letter-spacing:0.19em;}.cls-5{letter-spacing:0.14em;}.cls-6,.cls-8{stroke:#fff;stroke-miterlimit:10;stroke-width:0.5px;}.cls-7{fill:#fff;}.cls-8{fill:none;}</style></defs><text class="cls-1" transform="translate(0 107.31) scale(0.98 1)">ZOE <tspan class="cls-2" x="75.06" y="0">C</tspan><tspan class="cls-3" x="96.31" y="0">OMMUNI</tspan><tspan class="cls-4" x="237.01" y="0">T</tspan><tspan class="cls-5" x="254.08" y="0">Y</tspan></text><path class="cls-6" d="M168.34,33.57c1.27-2.35,2.29-3.42,3.54-6.6a9.66,9.66,0,0,0,.86-2.54c.23-1.3.7-4.08,1.19-4.37.94-.55,1.28,4,1.28,4s1.6-4.54,1.82,1.48c0,.43.12-.68.94-1.09.42-.22.53.83.55,1.32s-.12,1.59-.07,1.66.55-.59.85-.49c.12,0,.28.15.25.93a13,13,0,0,1-.46,2.23s7.39-3.91,9.81-5.67a31.46,31.46,0,0,0,7.53-8.78s.22.18,3.31-6.36c0,0,1.52-4.19,1.92,0,0,0,.11.74.33,3.43A13.94,13.94,0,0,0,204.66,10s.24-.52.57,0a8.06,8.06,0,0,1,.05,4.62s0,.19-.41.74c0,0,0,.26,2.33-1.69,0,0,1.92-1.1.27,4.77A5.79,5.79,0,0,1,206,21.34,6.45,6.45,0,0,0,208.38,20c1.4-1.12,1.67-.52,1.59.47,0,0-.19,4-4.83,7.64,0,0,6.33-2.69,1.39,2.85a8.75,8.75,0,0,1-3.69,2.33s5.92-.89.8,4a7.76,7.76,0,0,1-3.34,1.35s4.17-1,1.75,2.08a27.87,27.87,0,0,1-3.81,3.46s-4.45,9.8-20,10.72c0,0,.51,1.45,10.66,2.09,0,0,1.48,0,1.46.62,0,0-.4,12.5-5.09,16.88a17.89,17.89,0,0,1-7.51,3s-1.12.31-1.22-1.36c0,0-.28-9.36-.84-9.49,0,0-.84-1.43-4.88-2.62,0,0-1.62-.53-2.88-.83a13.94,13.94,0,0,1-6.38-3.67s-2.61-2.51-3.68-8c0,0-.7-5.57-1-6.71,0,0-.87-4.68-2.76-5.61,0,0-.06.1-.39-.08a8.55,8.55,0,0,1-1.91,1s-1.45.57-1.64,1-.2-.17-.14-.5c0,0,.21-1.24.62-2.7a4.29,4.29,0,0,1-.11-4.2c1.22-2.12,4.41-2,5.26-1.78s2.75.46,5.7,3.08a20.5,20.5,0,0,0,3.82,2.78l.78-.81S167.87,34.45,168.34,33.57Z" transform="translate(-45.63 -7.17)"/><ellipse class="cls-7" cx="107.07" cy="28.21" rx="0.97" ry="0.99"/><path class="cls-8" d="M179.1,30.09a57.64,57.64,0,0,0-10.42,7.44,4.21,4.21,0,0,0-1,1.18l-2.36-1" transform="translate(-45.63 -7.17)"/></svg>