<?xml version="1.0" encoding="utf-8"?>
<!-- Generator: Adobe Illustrator 25.0.1, SVG Export Plug-In . SVG Version: 6.00 Build 0)  -->
<svg version="1.1" id="Capa_1" xmlns:serif="http://www.serif.com/"
	 xmlns="http://www.w3.org/2000/svg" xmlns:xlink="http://www.w3.org/1999/xlink" x="0px" y="0px" viewBox="0 0 64 64"
	 style="enable-background:new 0 0 64 64;" xml:space="preserve">
<style type="text/css">
	.st0{fill:#FFFFFF;}
	.st1{fill:#345B9D;}
</style>
<g>
	<circle class="st0" cx="32" cy="32" r="32"/>
	<path class="st1" d="M15.5,29.3c0,0,0,0.4,0.2,0.6c0.2,0.4-1.4,0.6-1.7,1.2c-0.4,0.6,0.4-1.9,0.4-1.9s-0.4-1,0-1.9
		c0.4-0.8,1.6-1.7,3.1-1.6c1.4,0.2,2.7,1.2,3.5,1.7c1.9,1.7,3.7,2.3,3.7,2.3s-0.6,1-1.4,1.7c0,0,0.4,0.4,1.7-1.2
		c1.4-1.6,0.6-1.6,12.6-9.1c0,0,3.9-3.5,5.8-7.4c1.9-3.9,1.7-3.9,2.1,0.4c0,0,1-0.8,1.6-1.6c0.6-0.8,0.8,2.5,0.2,3.1
		c-0.6,0.6,1.2-0.8,1.2-0.8s1.4-0.6-0.8,4.5c0,0,0.6,0,1.7-1c1.4-1,1,2.9-2.1,5c0,0,4.7-1.9,0,2.3c0,0-0.6,0.4-1.4,0.8
		c0,0,5.4-0.4-1.6,3.1c0,0,4.3-1-1.2,3.3c0,0-2.5,5.8-12.2,6.4c0,0,0.2,1,6.4,1.2c0,0,1,0,1,0.4c0,0.4-0.4,7.4-3.1,10.1
		c0,0-1.4,1.2-4.5,1.7c0,0-0.6,0.2-0.8-0.8c0-1-0.2-5.4-0.6-5.6c-0.4-0.2-0.2-1-4.7-2.1c-1.7-0.4-4.1-1.7-5.2-4.3
		c-0.4-1-0.8-1.7-1-2.7c-0.2-1.2-0.4-2.5-0.6-3.7c-0.4-2.1-1.2-3.5-1.7-3.7C16.3,30.1,15.7,30.1,15.5,29.3z"/>
	<circle class="st0" cx="16.3" cy="27.9" r="0.6"/>
	<path class="st1" d="M24.6,29.5l-1.2-0.8c0,0,3.7-4.8,4.1-8s1.2-2.7,1.4,0.4c0,0,1-2.7,1.2,1c0,0,1.2-2.1,1,1.2
		c0,0,1.2-1.2,0.4,1.6C31.4,24.6,27.5,26.8,24.6,29.5z"/>
</g>
</svg>
